<svg width="23" height="23" viewBox="0 0 23 23" fill="none" xmlns="http://www.w3.org/2000/svg">
<path fill-rule="evenodd" clip-rule="evenodd" d="M2.99991 -0.000190973H7.00004C8.65703 -0.000190973 10.0001 1.3429 10.0001 3.00002V19.9999C10.0001 21.6566 8.65703 23.0001 7.00004 23.0001H2.99991C1.34319 23.0001 -0.00011003 21.6566 -0.00011003 19.9999V3.00002C-0.00011003 1.3429 1.34319 -0.000190973 2.99991 -0.000190973ZM14 13.0001H21.9999C22.5523 13.0001 23.0001 13.4478 23.0001 13.9999C23.0001 14.5524 22.5523 15.0001 21.9999 15.0001H14C13.4476 15.0001 13.0001 14.5524 13.0001 13.9999C13.0001 13.4478 13.4476 13.0001 14 13.0001ZM14 16.9997H21.9999C22.5523 16.9997 23.0001 17.4474 23.0001 18.0003C23.0001 18.552 22.5523 18.9997 21.9999 18.9997H14C13.4476 18.9997 13.0001 18.552 13.0001 18.0003C13.0001 17.4474 13.4476 16.9997 14 16.9997ZM21.9999 21.0001H14C13.4476 21.0001 13.0001 21.4478 13.0001 22.0003C13.0001 22.552 13.4476 23.0001 14 23.0001H21.9999C22.5523 23.0001 23.0001 22.552 23.0001 22.0003C23.0001 21.4478 22.5523 21.0001 21.9999 21.0001ZM20 -0.000190973H16.0001C14.3432 -0.000190973 13.0001 1.3429 13.0001 3.00002V7.00004C13.0001 8.65676 14.3432 9.99985 16.0001 9.99985H20C21.6565 9.99985 23.0001 8.65676 23.0001 7.00004V3.00002C23.0001 1.3429 21.6565 -0.000190973 20 -0.000190973ZM2.99991 1.99981H7.00004C7.55238 1.99981 7.99964 2.44752 7.99964 3.00002V19.9999C7.99964 20.5524 7.55238 21.0001 7.00004 21.0001H2.99991C2.4476 21.0001 2.00008 20.5524 2.00008 19.9999V3.00002C2.00008 2.44752 2.4476 1.99981 2.99991 1.99981ZM20 1.99981H16.0001C15.4476 1.99981 15 2.44752 15 3.00002V7.00004C15 7.55252 15.4476 8.00023 16.0001 8.00023H20C20.5523 8.00023 21.0001 7.55252 21.0001 7.00004V3.00002C21.0001 2.44752 20.5523 1.99981 20 1.99981Z" fill="white"/>
</svg>
