<svg width="24" height="25" viewBox="0 0 24 25" fill="none" xmlns="http://www.w3.org/2000/svg">
<path fill-rule="evenodd" clip-rule="evenodd" d="M-0.000218034 3.2829L2.24788 0.995084L6.21437 4.22493L6.611 6.24342L10.0493 9.60736L8.66079 11.0198L5.3548 7.52142L3.3058 7.18508L-0.000218034 3.2829ZM17.255 7.9252L16.9906 4.56127L19.971 1.52877C19.5664 1.42358 19.1425 1.36766 18.7057 1.36766C15.8916 1.36766 13.6104 3.68976 13.6104 6.55357C13.6104 7.18637 13.7218 7.7927 13.9257 8.35337L1.58665 20.91L1.6524 22.5922L4.62726 24.0051L16.9803 11.4343C17.5191 11.6316 18.1 11.7391 18.7057 11.7391C21.5202 11.7391 23.8017 9.41741 23.8017 6.55357C23.8017 6.08797 23.7414 5.63668 23.6283 5.20736L20.6273 8.26154L17.3875 8.06004L17.255 7.9252ZM17.0567 14.1822L14.4124 19.1609L19.1062 23.9376L22.4122 22.1884L22.8751 20.1029L17.0567 14.1822Z" fill="#888888"/>
</svg>
