<svg width="17" height="18" viewBox="0 0 17 18" fill="none" xmlns="http://www.w3.org/2000/svg">
<path fill-rule="evenodd" clip-rule="evenodd" d="M15.9265 15.866C16.5128 15.866 16.9883 15.3906 16.9883 14.8042C16.9883 14.6335 16.9477 14.4717 16.8763 14.3291L14.8648 10.306V7.37048C14.8648 3.8513 12.0125 0.99864 8.49426 0.99864C4.9766 0.99864 2.12428 3.8513 2.12428 7.37048V10.306L0.112773 14.3291C0.0411049 14.4717 0.000767946 14.6335 0.000767946 14.8042C0.000767946 15.3906 0.476034 15.866 1.06226 15.866H6.37077C6.37077 17.0388 7.32128 17.9897 8.49426 17.9897C9.66726 17.9897 10.6183 17.0388 10.6183 15.866H15.9265ZM4.10264 11.0681H4.09107L2.51836 13.8995H14.472L12.899 11.0681H12.8975V7.61128H12.8857C12.8935 7.50403 12.8975 7.39572 12.8975 7.28648C12.8975 4.85766 10.9286 2.88886 8.49992 2.88886C6.07096 2.88886 4.10264 4.85766 4.10264 7.28648C4.10264 7.39572 4.10662 7.50403 4.11445 7.61128H4.10264V11.0681Z" fill="#AAAAAA"/>
</svg>
