<svg width="12" height="12" viewBox="0 0 12 12" fill="none" xmlns="http://www.w3.org/2000/svg">
<path fill-rule="evenodd" clip-rule="evenodd" d="M7.00006 1.00001C7.00006 0.447894 6.55229 0.000201941 5.99997 0.000201941C5.44763 0.000201941 5.00013 0.447894 5.00013 1.00001V5.00004H1C0.447664 5.00004 -0.000367999 5.44773 -0.000367999 5.99985C-0.000367999 6.55234 0.447664 7.00005 1 7.00005H5.00013V11.0001C5.00013 11.5522 5.44763 11.9999 5.99997 11.9999C6.55229 11.9999 7.00006 11.5522 7.00006 11.0001V7.00005H10.9997C11.5523 7.00005 12 6.55234 12 5.99985C12 5.44773 11.5523 5.00004 10.9997 5.00004H7.00006V1.00001Z" fill="white"/>
</svg>
