<svg width="24" height="23" viewBox="0 0 24 23" fill="none" xmlns="http://www.w3.org/2000/svg">
<path fill-rule="evenodd" clip-rule="evenodd" d="M22.9999 -8.29697e-05H0.99989C0.447551 -8.29697e-05 5.30481e-05 0.447604 5.30481e-05 1.0001C5.30481e-05 1.55223 0.447551 2.00029 0.99989 2.00029H22.9999C23.5523 2.00029 24.0001 1.55223 24.0001 1.0001C24.0001 0.447604 23.5523 -8.29697e-05 22.9999 -8.29697e-05ZM22.0001 4.99975H2C0.895346 4.99975 5.30481e-05 5.89553 5.30481e-05 7.00015V20.9998C5.30481e-05 22.1048 0.895346 23.0002 2 23.0002H22.0001C23.1045 23.0002 24.0001 22.1048 24.0001 20.9998V7.00015C24.0001 5.89553 23.1045 4.99975 22.0001 4.99975ZM2 7.00015H22.0001V20.9998H2V7.00015ZM6.99997 10.5001C6.99997 9.6717 6.32842 9.00015 5.49993 9.00015C4.67146 9.00015 3.99991 9.6717 3.99991 10.5001C3.99991 11.3284 4.67146 12 5.49993 12C6.32842 12 6.99997 11.3284 6.99997 10.5001Z" fill="#888888"/>
</svg>
