<svg width="32" height="23" viewBox="0 0 32 23" fill="none" xmlns="http://www.w3.org/2000/svg">
<path fill-rule="evenodd" clip-rule="evenodd" d="M27.7502 1.87058C30.8592 3.66562 31.9245 7.64136 30.1293 10.7502C28.3344 13.8591 24.3589 14.924 21.2502 13.129C18.1413 11.3343 17.0757 7.35895 18.8708 4.25008C20.666 1.14084 24.6412 0.0759062 27.7502 1.87058ZM29 16.9999H20.0001C19.4476 16.9999 19.0001 17.4476 19.0001 17.9997C19.0001 18.5522 19.4476 18.9999 20.0001 18.9999H29C29.5523 18.9999 30.0001 18.5522 30.0001 17.9997C30.0001 17.4476 29.5523 16.9999 29 16.9999ZM29 21H20.0001C19.4476 21 19.0001 21.448 19.0001 21.9998C19.0001 22.5526 19.4476 23.0003 20.0001 23.0003H29C29.5523 23.0003 30.0001 22.5526 30.0001 21.9998C30.0001 21.448 29.5523 21 29 21ZM29.143 7.5952C29.1693 6.25572 28.614 4.9382 27.5793 4.02373L26.1248 6.5429L28.6069 7.20791C28.8361 7.26924 29.0223 7.41124 29.143 7.5952ZM28.9504 8.82716C28.8487 9.16721 28.7061 9.50091 28.5209 9.82169C27.2387 12.0425 24.3992 12.803 22.1786 11.5208C19.9578 10.2386 19.1971 7.39901 20.4793 5.17861C21.6022 3.23324 23.9206 2.40808 25.971 3.09526L24.1601 6.23161C24.0968 6.34125 24.0584 6.45841 24.0431 6.57656C23.9702 6.67099 23.9144 6.78111 23.8816 6.90353C23.749 7.39862 24.0434 7.90835 24.5385 8.04051L28.1263 9.00217C28.4243 9.08193 28.7274 9.00725 28.9504 8.82716ZM13 2.99984C13.5523 2.99984 14.0001 3.44753 14.0001 4.00003V21.9998C14.0001 22.5526 13.5523 23.0003 13 23.0003C12.4476 23.0003 11.9996 22.5526 11.9996 21.9998V4.00003C11.9996 3.44753 12.4476 2.99984 13 2.99984ZM9.99995 7.99967C9.99995 7.44795 9.55217 7.00025 9.00011 7.00025C8.44755 7.00025 8 7.44795 8 7.99967V21.9998C8 22.5526 8.44755 23.0003 9.00011 23.0003C9.55217 23.0003 9.99995 22.5526 9.99995 21.9998V7.99967ZM4.99998 12.9999C5.55231 12.9999 6.00009 13.4476 6.00009 14.0001V21.9998C6.00009 22.5526 5.55231 23.0003 4.99998 23.0003C4.44792 23.0003 3.9999 22.5526 3.9999 21.9998V14.0001C3.9999 13.4476 4.44792 12.9999 4.99998 12.9999ZM1.99996 12.0001C1.99996 11.4476 1.55218 11.0003 0.999608 11.0003C0.447516 11.0003 7.98702e-06 11.4476 7.98702e-06 12.0001V21.9998C7.98702e-06 22.5526 0.447516 23.0003 0.999608 23.0003C1.55218 23.0003 1.99996 22.5526 1.99996 21.9998V12.0001Z" fill="#888888"/>
</svg>
