<svg width="29" height="20" viewBox="0 0 29 20" fill="none" xmlns="http://www.w3.org/2000/svg">
<path fill-rule="evenodd" clip-rule="evenodd" d="M1.46005 7.60555e-05H9.79017C10.5218 7.60555e-05 11.3755 0.447402 11.7195 1.02917L12.8848 3.00028H23.4999C24.3284 3.00028 24.9999 3.67146 24.9999 4.50059V6.99993H26H27.0001C27.1822 6.99993 27.3529 7.04862 27.5 7.1337C27.6471 7.04862 27.8178 6.99993 28 6.99993C28.5523 6.99993 29.0001 7.44763 29.0001 7.99974V13C29.0001 13.5521 28.5523 13.9998 28 13.9998C27.4476 13.9998 27.0001 13.5521 27.0001 13V8.99995H24.9999H5.99993V16.4999V18.0002V19C5.99993 19.5521 5.55215 19.9998 5.00009 19.9998H3.99999H3.50008H2.00006H1.50038C0.671647 19.9998 -0.00039804 19.3283 -0.00039804 18.5003V6.48288V4.50059V1.09312C-0.00039804 0.473978 0.656236 7.60555e-05 1.46005 7.60555e-05ZM3.99999 17V16.4999V6.99993H8.99996H10.0001H23V5.0003H13.5288L13.5 4.99991C11.9974 4.98875 11.5001 4.00009 11.5001 4.00009L10.0001 2.0001H8.99996H2.00006V4.00009V6.99993V17C2.00006 17.5521 2.44758 18.0002 2.9999 18.0002C3.55222 18.0002 3.99999 17.5521 3.99999 17Z" fill="#888888"/>
</svg>
