<svg width="22" height="23" viewBox="0 0 22 23" fill="none" xmlns="http://www.w3.org/2000/svg">
<path fill-rule="evenodd" clip-rule="evenodd" d="M11.115 -8.29697e-05H10.8854C10.2526 -8.29697e-05 9.7396 0.512728 9.7396 1.14577V7.85316C9.7396 8.4858 10.2526 8.99864 10.8854 8.99864H11.115C11.7477 8.99864 12.2605 8.4858 12.2605 7.85316V1.14577C12.2605 0.512728 11.7477 -8.29697e-05 11.115 -8.29697e-05ZM-0.000100017 12.3337C-0.000100017 7.85747 2.84368 4.02512 6.87495 2.44278V4.91119C4.14614 6.33112 2.29165 9.11606 2.29165 12.3194C2.29165 16.9636 6.19032 20.7286 10.9999 20.7286C15.8095 20.7286 19.7085 16.9636 19.7085 12.3194C19.7085 9.11614 17.8539 6.33125 15.1252 4.91129V2.44284C19.1564 4.02521 22 7.85752 22 12.3337C22 18.2246 17.0752 23.0002 10.9999 23.0002C4.92485 23.0002 -0.000100017 18.2246 -0.000100017 12.3337Z" fill="#AAAAAA"/>
</svg>
