<svg width="21" height="16" viewBox="0 0 21 16" fill="none" xmlns="http://www.w3.org/2000/svg">
<path fill-rule="evenodd" clip-rule="evenodd" d="M13.9999 -0.000200033H3.00008C1.89567 -0.000200033 1.00014 0.8952 1.00014 2.0002V8.96884C1.00014 9.02379 1.00235 9.07822 1.0067 9.13205L0.998072 9.13104V12.7835L1.06209 12.8511C1.02218 12.9497 1.00014 13.0581 1.00014 13.1719C1.00014 13.6292 1.35646 13.9999 1.79677 13.9999C1.90195 13.9999 2.00239 13.9787 2.09434 13.9402L2.15233 14.0014L5.02609 10.9688H13.9999C15.1042 10.9688 16 10.0734 16 8.96884V2.0002C16 0.8952 15.1042 -0.000200033 13.9999 -0.000200033ZM14.1257 1.99866H2.87343V10.3339L4.12374 9.00044H14.1257V1.99866ZM19.8751 6.65636H20.2499C20.6642 6.65636 21 6.99194 21 7.40612V14.75V15.2497C21 15.6639 20.6642 16.0003 20.2499 16.0003H19.8751H8.62482C8.21096 16.0003 7.87494 15.6639 7.87494 15.2497V14.75C7.87494 14.3358 8.21096 13.9999 8.62482 13.9999H19.1249V7.40612C19.1249 6.99194 19.4609 6.65636 19.8751 6.65636Z" fill="#AAAAAA"/>
</svg>
