<svg width="26" height="20" viewBox="0 0 26 20" fill="none" xmlns="http://www.w3.org/2000/svg">
<path fill-rule="evenodd" clip-rule="evenodd" d="M4.00007 2.00014C4.00007 0.895539 3.10455 -0.000241995 1.99988 -0.000241995C0.895505 -0.000241995 -4.39882e-05 0.895539 -4.39882e-05 2.00014C-4.39882e-05 3.10437 0.895505 3.99978 1.99988 3.99978C3.10455 3.99978 4.00007 3.10437 4.00007 2.00014ZM9.00005 0.999936H25C25.5524 0.999936 25.9999 1.44765 25.9999 2.00014C25.9999 2.55225 25.5524 2.99995 25 2.99995H9.00005C8.44771 2.99995 7.99995 2.55225 7.99995 2.00014C7.99995 1.44765 8.44771 0.999936 9.00005 0.999936ZM4.00007 9.99981C4.00007 8.89558 3.10455 8.00017 1.99988 8.00017C0.895505 8.00017 -4.39882e-05 8.89558 -4.39882e-05 9.99981C-4.39882e-05 11.1048 0.895505 12.0002 1.99988 12.0002C3.10455 12.0002 4.00007 11.1048 4.00007 9.99981ZM9.00005 9H25C25.5524 9 25.9999 9.4477 25.9999 9.99981C25.9999 10.5523 25.5524 11 25 11H9.00005C8.44771 11 7.99995 10.5523 7.99995 9.99981C7.99995 9.4477 8.44771 9 9.00005 9ZM4.00007 17.9999C4.00007 16.8956 3.10455 16.0002 1.99988 16.0002C0.895505 16.0002 -4.39882e-05 16.8956 -4.39882e-05 17.9999C-4.39882e-05 19.1045 0.895505 19.9999 1.99988 19.9999C3.10455 19.9999 4.00007 19.1045 4.00007 17.9999ZM25 17H9.00005C8.44771 17 7.99995 17.4477 7.99995 17.9999C7.99995 18.5523 8.44771 19.0001 9.00005 19.0001H25C25.5524 19.0001 25.9999 18.5523 25.9999 17.9999C25.9999 17.4477 25.5524 17 25 17Z" fill="#888888"/>
</svg>
