<svg width="27" height="25" viewBox="0 0 27 25" fill="none" xmlns="http://www.w3.org/2000/svg">
<path fill-rule="evenodd" clip-rule="evenodd" d="M17.7095 1.02972L1.75625 5.76217C1.20574 5.92591 0.878446 6.55275 1.02617 7.16228C1.04438 7.23751 1.06898 7.30898 1.09915 7.37614C1.03477 7.57242 0.999956 7.78209 0.999956 7.9999V22.9998C0.999956 24.1044 1.8955 25.0002 2.99988 25.0002H23C24.1049 25.0002 25 24.1044 25 22.9998V19.8293C26.1649 19.4174 26.9996 18.3062 26.9996 17.0001V14.0003C26.9996 12.6939 26.1649 11.5827 25 11.1708V7.9999C25 6.89527 24.1049 5.99989 23 5.99989H8.93211L18.2438 3.23738C18.7944 3.07403 19.1214 2.44716 18.9734 1.83802C18.826 1.22852 18.2603 0.86634 17.7095 1.02972ZM23 7.9999V11.0001H18C16.3433 11.0001 15 12.3432 15 14.0003V17.0001C15 18.6569 16.3433 20 18 20H23V22.9998H2.99988V7.9999H23ZM24.0001 12.9997H18C17.448 12.9997 17 13.4474 17 14.0003V17.0001C17 17.5522 17.448 18 18 18H24.0001C24.5525 18 25 17.5522 25 17.0001V14.0003C25 13.4474 24.5525 12.9997 24.0001 12.9997ZM19.5001 14.0003C20.3285 14.0003 21.0001 14.6719 21.0001 15.4998C21.0001 16.3286 20.3285 17.0001 19.5001 17.0001C18.6716 17.0001 18 16.3286 18 15.4998C18 14.6719 18.6716 14.0003 19.5001 14.0003Z" fill="#888888"/>
</svg>
